<svg xmlns="http://www.w3.org/2000/svg" xmlns:xlink="http://www.w3.org/1999/xlink" width="100" zoomAndPan="magnify" viewBox="0 0 75 74.999997" height="100" preserveAspectRatio="xMidYMid meet" version="1.0"><defs><clipPath id="57fd8ec82e"><path d="M 7.5 7.351562 L 67.648438 7.351562 L 67.648438 67.5 L 7.5 67.5 Z M 7.5 7.351562 " clip-rule="nonzero"/></clipPath><clipPath id="0b5a5cbce7"><path d="M 37.574219 7.351562 C 20.964844 7.351562 7.5 20.816406 7.5 37.425781 C 7.5 54.035156 20.964844 67.5 37.574219 67.5 C 54.183594 67.5 67.648438 54.035156 67.648438 37.425781 C 67.648438 20.816406 54.183594 7.351562 37.574219 7.351562 Z M 37.574219 7.351562 " clip-rule="nonzero"/></clipPath><linearGradient x1="128" gradientTransform="matrix(0.234961, 0, 0, 0.234961, 7.500001, 7.349998)" y1="0.00000295262" x2="128" gradientUnits="userSpaceOnUse" y2="256.000008" id="99dc296265"><stop stop-opacity="1" stop-color="rgb(99.998474%, 67.498779%, 45.899963%)" offset="0"/><stop stop-opacity="1" stop-color="rgb(99.984741%, 67.625427%, 45.899963%)" offset="0.0078125"/><stop stop-opacity="1" stop-color="rgb(99.958801%, 67.880249%, 45.899963%)" offset="0.015625"/><stop stop-opacity="1" stop-color="rgb(99.931335%, 68.133545%, 45.899963%)" offset="0.0234375"/><stop stop-opacity="1" stop-color="rgb(99.90387%, 68.388367%, 45.899963%)" offset="0.03125"/><stop stop-opacity="1" stop-color="rgb(99.876404%, 68.641663%, 45.899963%)" offset="0.0390625"/><stop stop-opacity="1" stop-color="rgb(99.848938%, 68.894958%, 45.899963%)" offset="0.046875"/><stop stop-opacity="1" stop-color="rgb(99.821472%, 69.14978%, 45.899963%)" offset="0.0546875"/><stop stop-opacity="1" stop-color="rgb(99.794006%, 69.403076%, 45.899963%)" offset="0.0625"/><stop stop-opacity="1" stop-color="rgb(99.766541%, 69.657898%, 45.899963%)" offset="0.0703125"/><stop stop-opacity="1" stop-color="rgb(99.739075%, 69.911194%, 45.899963%)" offset="0.078125"/><stop stop-opacity="1" stop-color="rgb(99.711609%, 70.16449%, 45.899963%)" offset="0.0859375"/><stop stop-opacity="1" stop-color="rgb(99.684143%, 70.419312%, 45.899963%)" offset="0.09375"/><stop stop-opacity="1" stop-color="rgb(99.656677%, 70.672607%, 45.899963%)" offset="0.101562"/><stop stop-opacity="1" stop-color="rgb(99.630737%, 70.927429%, 45.899963%)" offset="0.109375"/><stop stop-opacity="1" stop-color="rgb(99.603271%, 71.180725%, 45.899963%)" offset="0.117187"/><stop stop-opacity="1" stop-color="rgb(99.575806%, 71.434021%, 45.899963%)" offset="0.125"/><stop stop-opacity="1" stop-color="rgb(99.54834%, 71.688843%, 45.899963%)" offset="0.132812"/><stop stop-opacity="1" stop-color="rgb(99.520874%, 71.942139%, 45.899963%)" offset="0.140625"/><stop stop-opacity="1" stop-color="rgb(99.493408%, 72.19696%, 45.899963%)" offset="0.148438"/><stop stop-opacity="1" stop-color="rgb(99.465942%, 72.450256%, 45.899963%)" offset="0.15625"/><stop stop-opacity="1" stop-color="rgb(99.438477%, 72.703552%, 45.899963%)" offset="0.164062"/><stop stop-opacity="1" stop-color="rgb(99.411011%, 72.958374%, 45.899963%)" offset="0.171875"/><stop stop-opacity="1" stop-color="rgb(99.383545%, 73.21167%, 45.899963%)" offset="0.179687"/><stop stop-opacity="1" stop-color="rgb(99.356079%, 73.466492%, 45.899963%)" offset="0.1875"/><stop stop-opacity="1" stop-color="rgb(99.328613%, 73.719788%, 45.899963%)" offset="0.195312"/><stop stop-opacity="1" stop-color="rgb(99.301147%, 73.973083%, 45.899963%)" offset="0.203125"/><stop stop-opacity="1" stop-color="rgb(99.275208%, 74.227905%, 45.899963%)" offset="0.210937"/><stop stop-opacity="1" stop-color="rgb(99.247742%, 74.481201%, 45.899963%)" offset="0.21875"/><stop stop-opacity="1" stop-color="rgb(99.220276%, 74.736023%, 45.899963%)" offset="0.226562"/><stop stop-opacity="1" stop-color="rgb(99.19281%, 74.989319%, 45.899963%)" offset="0.234375"/><stop stop-opacity="1" stop-color="rgb(99.165344%, 75.242615%, 45.899963%)" offset="0.242187"/><stop stop-opacity="1" stop-color="rgb(99.137878%, 75.497437%, 45.899963%)" offset="0.25"/><stop stop-opacity="1" stop-color="rgb(99.110413%, 75.750732%, 45.899963%)" offset="0.257812"/><stop stop-opacity="1" stop-color="rgb(99.082947%, 76.005554%, 45.899963%)" offset="0.265625"/><stop stop-opacity="1" stop-color="rgb(99.055481%, 76.25885%, 45.899963%)" offset="0.273437"/><stop stop-opacity="1" stop-color="rgb(99.028015%, 76.512146%, 45.899963%)" offset="0.28125"/><stop stop-opacity="1" stop-color="rgb(99.000549%, 76.766968%, 45.899963%)" offset="0.289062"/><stop stop-opacity="1" stop-color="rgb(98.973083%, 77.020264%, 45.899963%)" offset="0.296875"/><stop stop-opacity="1" stop-color="rgb(98.947144%, 77.275085%, 45.899963%)" offset="0.304687"/><stop stop-opacity="1" stop-color="rgb(98.919678%, 77.528381%, 45.899963%)" offset="0.3125"/><stop stop-opacity="1" stop-color="rgb(98.892212%, 77.781677%, 45.899963%)" offset="0.320312"/><stop stop-opacity="1" stop-color="rgb(98.864746%, 78.036499%, 45.899963%)" offset="0.328125"/><stop stop-opacity="1" stop-color="rgb(98.83728%, 78.289795%, 45.899963%)" offset="0.335937"/><stop stop-opacity="1" stop-color="rgb(98.809814%, 78.544617%, 45.899963%)" offset="0.34375"/><stop stop-opacity="1" stop-color="rgb(98.782349%, 78.797913%, 45.899963%)" offset="0.351562"/><stop stop-opacity="1" stop-color="rgb(98.754883%, 79.051208%, 45.899963%)" offset="0.359375"/><stop stop-opacity="1" stop-color="rgb(98.727417%, 79.30603%, 45.899963%)" offset="0.367187"/><stop stop-opacity="1" stop-color="rgb(98.699951%, 79.559326%, 45.899963%)" offset="0.375"/><stop stop-opacity="1" stop-color="rgb(98.672485%, 79.814148%, 45.899963%)" offset="0.382812"/><stop stop-opacity="1" stop-color="rgb(98.64502%, 80.067444%, 45.899963%)" offset="0.390625"/><stop stop-opacity="1" stop-color="rgb(98.617554%, 80.32074%, 45.899963%)" offset="0.398437"/><stop stop-opacity="1" stop-color="rgb(98.591614%, 80.575562%, 45.899963%)" offset="0.40625"/><stop stop-opacity="1" stop-color="rgb(98.564148%, 80.828857%, 45.899963%)" offset="0.414062"/><stop stop-opacity="1" stop-color="rgb(98.536682%, 81.083679%, 45.899963%)" offset="0.421875"/><stop stop-opacity="1" stop-color="rgb(98.509216%, 81.336975%, 45.899963%)" offset="0.429687"/><stop stop-opacity="1" stop-color="rgb(98.48175%, 81.590271%, 45.899963%)" offset="0.4375"/><stop stop-opacity="1" stop-color="rgb(98.454285%, 81.845093%, 45.899963%)" offset="0.445312"/><stop stop-opacity="1" stop-color="rgb(98.426819%, 82.098389%, 45.899963%)" offset="0.453125"/><stop stop-opacity="1" stop-color="rgb(98.399353%, 82.35321%, 45.899963%)" offset="0.460937"/><stop stop-opacity="1" stop-color="rgb(98.371887%, 82.606506%, 45.899963%)" offset="0.46875"/><stop stop-opacity="1" stop-color="rgb(98.344421%, 82.859802%, 45.899963%)" offset="0.476562"/><stop stop-opacity="1" stop-color="rgb(98.316956%, 83.114624%, 45.899963%)" offset="0.484375"/><stop stop-opacity="1" stop-color="rgb(98.28949%, 83.36792%, 45.899963%)" offset="0.492187"/><stop stop-opacity="1" stop-color="rgb(98.26355%, 83.622742%, 45.899963%)" offset="0.5"/><stop stop-opacity="1" stop-color="rgb(98.236084%, 83.876038%, 45.899963%)" offset="0.507812"/><stop stop-opacity="1" stop-color="rgb(98.208618%, 84.129333%, 45.899963%)" offset="0.515625"/><stop stop-opacity="1" stop-color="rgb(98.181152%, 84.384155%, 45.899963%)" offset="0.523437"/><stop stop-opacity="1" stop-color="rgb(98.153687%, 84.637451%, 45.899963%)" offset="0.53125"/><stop stop-opacity="1" stop-color="rgb(98.126221%, 84.892273%, 45.899963%)" offset="0.539062"/><stop stop-opacity="1" stop-color="rgb(98.098755%, 85.145569%, 45.899963%)" offset="0.546875"/><stop stop-opacity="1" stop-color="rgb(98.071289%, 85.398865%, 45.899963%)" offset="0.554687"/><stop stop-opacity="1" stop-color="rgb(98.043823%, 85.653687%, 45.899963%)" offset="0.5625"/><stop stop-opacity="1" stop-color="rgb(98.016357%, 85.906982%, 45.899963%)" offset="0.570312"/><stop stop-opacity="1" stop-color="rgb(97.988892%, 86.161804%, 45.899963%)" offset="0.578125"/><stop stop-opacity="1" stop-color="rgb(97.961426%, 86.4151%, 45.899963%)" offset="0.585937"/><stop stop-opacity="1" stop-color="rgb(97.93396%, 86.668396%, 45.899963%)" offset="0.59375"/><stop stop-opacity="1" stop-color="rgb(97.90802%, 86.923218%, 45.899963%)" offset="0.601562"/><stop stop-opacity="1" stop-color="rgb(97.880554%, 87.176514%, 45.899963%)" offset="0.609375"/><stop stop-opacity="1" stop-color="rgb(97.853088%, 87.431335%, 45.899963%)" offset="0.617187"/><stop stop-opacity="1" stop-color="rgb(97.825623%, 87.684631%, 45.899963%)" offset="0.625"/><stop stop-opacity="1" stop-color="rgb(97.798157%, 87.937927%, 45.899963%)" offset="0.632812"/><stop stop-opacity="1" stop-color="rgb(97.770691%, 88.192749%, 45.899963%)" offset="0.640625"/><stop stop-opacity="1" stop-color="rgb(97.743225%, 88.446045%, 45.899963%)" offset="0.648437"/><stop stop-opacity="1" stop-color="rgb(97.715759%, 88.700867%, 45.899963%)" offset="0.65625"/><stop stop-opacity="1" stop-color="rgb(97.688293%, 88.954163%, 45.899963%)" offset="0.664062"/><stop stop-opacity="1" stop-color="rgb(97.660828%, 89.207458%, 45.899963%)" offset="0.671875"/><stop stop-opacity="1" stop-color="rgb(97.633362%, 89.46228%, 45.899963%)" offset="0.679687"/><stop stop-opacity="1" stop-color="rgb(97.605896%, 89.715576%, 45.899963%)" offset="0.6875"/><stop stop-opacity="1" stop-color="rgb(97.579956%, 89.970398%, 45.899963%)" offset="0.695312"/><stop stop-opacity="1" stop-color="rgb(97.55249%, 90.223694%, 45.899963%)" offset="0.703125"/><stop stop-opacity="1" stop-color="rgb(97.525024%, 90.47699%, 45.899963%)" offset="0.710937"/><stop stop-opacity="1" stop-color="rgb(97.497559%, 90.731812%, 45.899963%)" offset="0.71875"/><stop stop-opacity="1" stop-color="rgb(97.470093%, 90.985107%, 45.899963%)" offset="0.726562"/><stop stop-opacity="1" stop-color="rgb(97.442627%, 91.239929%, 45.899963%)" offset="0.734375"/><stop stop-opacity="1" stop-color="rgb(97.415161%, 91.493225%, 45.899963%)" offset="0.742187"/><stop stop-opacity="1" stop-color="rgb(97.387695%, 91.746521%, 45.899963%)" offset="0.75"/><stop stop-opacity="1" stop-color="rgb(97.360229%, 92.001343%, 45.899963%)" offset="0.757812"/><stop stop-opacity="1" stop-color="rgb(97.332764%, 92.254639%, 45.899963%)" offset="0.765625"/><stop stop-opacity="1" stop-color="rgb(97.305298%, 92.50946%, 45.899963%)" offset="0.773437"/><stop stop-opacity="1" stop-color="rgb(97.277832%, 92.762756%, 45.899963%)" offset="0.78125"/><stop stop-opacity="1" stop-color="rgb(97.250366%, 93.016052%, 45.899963%)" offset="0.789062"/><stop stop-opacity="1" stop-color="rgb(97.224426%, 93.270874%, 45.899963%)" offset="0.796875"/><stop stop-opacity="1" stop-color="rgb(97.19696%, 93.52417%, 45.899963%)" offset="0.804688"/><stop stop-opacity="1" stop-color="rgb(97.169495%, 93.778992%, 45.899963%)" offset="0.8125"/><stop stop-opacity="1" stop-color="rgb(97.142029%, 94.032288%, 45.899963%)" offset="0.820312"/><stop stop-opacity="1" stop-color="rgb(97.114563%, 94.285583%, 45.899963%)" offset="0.828125"/><stop stop-opacity="1" stop-color="rgb(97.087097%, 94.540405%, 45.899963%)" offset="0.835937"/><stop stop-opacity="1" stop-color="rgb(97.059631%, 94.793701%, 45.899963%)" offset="0.84375"/><stop stop-opacity="1" stop-color="rgb(97.032166%, 95.048523%, 45.899963%)" offset="0.851562"/><stop stop-opacity="1" stop-color="rgb(97.0047%, 95.301819%, 45.899963%)" offset="0.859375"/><stop stop-opacity="1" stop-color="rgb(96.977234%, 95.555115%, 45.899963%)" offset="0.867187"/><stop stop-opacity="1" stop-color="rgb(96.949768%, 95.809937%, 45.899963%)" offset="0.875"/><stop stop-opacity="1" stop-color="rgb(96.922302%, 96.063232%, 45.899963%)" offset="0.882812"/><stop stop-opacity="1" stop-color="rgb(96.896362%, 96.318054%, 45.899963%)" offset="0.890625"/><stop stop-opacity="1" stop-color="rgb(96.868896%, 96.57135%, 45.899963%)" offset="0.898437"/><stop stop-opacity="1" stop-color="rgb(96.841431%, 96.824646%, 45.899963%)" offset="0.90625"/><stop stop-opacity="1" stop-color="rgb(96.813965%, 97.079468%, 45.899963%)" offset="0.914062"/><stop stop-opacity="1" stop-color="rgb(96.786499%, 97.332764%, 45.899963%)" offset="0.921875"/><stop stop-opacity="1" stop-color="rgb(96.759033%, 97.587585%, 45.899963%)" offset="0.929687"/><stop stop-opacity="1" stop-color="rgb(96.731567%, 97.840881%, 45.899963%)" offset="0.9375"/><stop stop-opacity="1" stop-color="rgb(96.704102%, 98.094177%, 45.899963%)" offset="0.945312"/><stop stop-opacity="1" stop-color="rgb(96.676636%, 98.348999%, 45.899963%)" offset="0.953125"/><stop stop-opacity="1" stop-color="rgb(96.64917%, 98.602295%, 45.899963%)" offset="0.960937"/><stop stop-opacity="1" stop-color="rgb(96.621704%, 98.857117%, 45.899963%)" offset="0.96875"/><stop stop-opacity="1" stop-color="rgb(96.594238%, 99.110413%, 45.899963%)" offset="0.976562"/><stop stop-opacity="1" stop-color="rgb(96.566772%, 99.363708%, 45.899963%)" offset="0.984375"/><stop stop-opacity="1" stop-color="rgb(96.540833%, 99.61853%, 45.899963%)" offset="0.992187"/><stop stop-opacity="1" stop-color="rgb(96.513367%, 99.871826%, 45.899963%)" offset="1"/></linearGradient><clipPath id="6581262e49"><path d="M 19.539062 19.460938 L 55.539062 19.460938 L 55.539062 55.460938 L 19.539062 55.460938 Z M 19.539062 19.460938 " clip-rule="nonzero"/></clipPath></defs><g clip-path="url(#57fd8ec82e)"><g clip-path="url(#0b5a5cbce7)"><path fill="url(#99dc296265)" d="M 7.5 7.351562 L 7.5 67.5 L 67.648438 67.5 L 67.648438 7.351562 Z M 7.5 7.351562 " fill-rule="nonzero"/></g></g><g clip-path="url(#6581262e49)"><path fill="#000000" d="M 30.082031 19.589844 C 28.167969 19.679688 26.859375 19.984375 25.714844 20.433594 C 24.53125 20.894531 23.53125 21.515625 22.53125 22.515625 C 21.535156 23.515625 20.917969 24.519531 20.460938 25.707031 C 20.019531 26.851562 19.71875 28.160156 19.632812 30.078125 C 19.550781 31.992188 19.53125 32.609375 19.539062 37.496094 C 19.550781 42.386719 19.570312 42.996094 19.664062 44.917969 C 19.753906 46.832031 20.058594 48.140625 20.507812 49.285156 C 20.96875 50.46875 21.589844 51.46875 22.589844 52.46875 C 23.59375 53.464844 24.59375 54.078125 25.785156 54.539062 C 26.929688 54.980469 28.238281 55.28125 30.152344 55.367188 C 32.070312 55.449219 32.6875 55.46875 37.574219 55.460938 C 42.460938 55.449219 43.074219 55.429688 44.996094 55.339844 C 46.914062 55.246094 48.214844 54.941406 49.359375 54.492188 C 50.542969 54.03125 51.546875 53.414062 52.542969 52.410156 C 53.539062 51.410156 54.15625 50.40625 54.613281 49.21875 C 55.054688 48.074219 55.359375 46.765625 55.441406 44.851562 C 55.523438 42.929688 55.542969 42.316406 55.535156 37.429688 C 55.527344 32.539062 55.503906 31.929688 55.414062 30.007812 C 55.320312 28.089844 55.015625 26.785156 54.566406 25.640625 C 54.105469 24.457031 53.488281 23.457031 52.484375 22.457031 C 51.484375 21.457031 50.480469 20.84375 49.292969 20.386719 C 48.148438 19.945312 46.839844 19.640625 44.925781 19.558594 C 43.007812 19.476562 42.390625 19.457031 37.503906 19.464844 C 32.613281 19.472656 32.003906 19.496094 30.082031 19.589844 M 30.292969 52.128906 C 28.539062 52.050781 27.585938 51.761719 26.949219 51.515625 C 26.109375 51.191406 25.511719 50.800781 24.878906 50.171875 C 24.242188 49.546875 23.855469 48.945312 23.527344 48.105469 C 23.28125 47.472656 22.984375 46.519531 22.902344 44.765625 C 22.8125 42.867188 22.792969 42.296875 22.78125 37.492188 C 22.773438 32.6875 22.789062 32.117188 22.875 30.222656 C 22.949219 28.46875 23.242188 27.511719 23.484375 26.878906 C 23.808594 26.035156 24.199219 25.4375 24.828125 24.804688 C 25.457031 24.171875 26.054688 23.785156 26.894531 23.457031 C 27.53125 23.207031 28.480469 22.914062 30.238281 22.828125 C 32.132812 22.738281 32.703125 22.722656 37.507812 22.710938 C 42.3125 22.699219 42.882812 22.71875 44.78125 22.800781 C 46.535156 22.878906 47.492188 23.167969 48.125 23.414062 C 48.964844 23.738281 49.5625 24.128906 50.195312 24.757812 C 50.828125 25.386719 51.21875 25.984375 51.546875 26.824219 C 51.796875 27.457031 52.089844 28.410156 52.171875 30.164062 C 52.261719 32.0625 52.285156 32.632812 52.292969 37.4375 C 52.300781 42.242188 52.285156 42.8125 52.199219 44.707031 C 52.125 46.464844 51.832031 47.417969 51.589844 48.050781 C 51.265625 48.894531 50.875 49.492188 50.246094 50.125 C 49.617188 50.757812 49.019531 51.144531 48.179688 51.476562 C 47.542969 51.722656 46.59375 52.015625 44.839844 52.101562 C 42.941406 52.191406 42.371094 52.207031 37.566406 52.21875 C 32.757812 52.230469 32.191406 52.210938 30.292969 52.128906 M 44.96875 27.84375 C 44.96875 28.128906 45.023438 28.402344 45.132812 28.667969 C 45.242188 28.933594 45.398438 29.167969 45.601562 29.367188 C 45.804688 29.570312 46.039062 29.726562 46.304688 29.835938 C 46.570312 29.945312 46.84375 30 47.128906 30 C 47.417969 30 47.691406 29.941406 47.957031 29.832031 C 48.222656 29.722656 48.453125 29.566406 48.65625 29.363281 C 48.859375 29.160156 49.015625 28.925781 49.125 28.660156 C 49.234375 28.398438 49.289062 28.121094 49.285156 27.835938 C 49.285156 27.546875 49.230469 27.273438 49.121094 27.007812 C 49.011719 26.742188 48.855469 26.511719 48.652344 26.308594 C 48.449219 26.105469 48.214844 25.949219 47.949219 25.839844 C 47.683594 25.730469 47.410156 25.679688 47.121094 25.679688 C 46.835938 25.679688 46.5625 25.734375 46.296875 25.84375 C 46.03125 25.953125 45.796875 26.109375 45.597656 26.3125 C 45.394531 26.515625 45.238281 26.75 45.128906 27.015625 C 45.019531 27.28125 44.964844 27.554688 44.96875 27.84375 M 28.296875 37.480469 C 28.304688 42.585938 32.449219 46.714844 37.554688 46.703125 C 42.660156 46.695312 46.789062 42.550781 46.78125 37.445312 C 46.769531 32.339844 42.625 28.210938 37.519531 28.21875 C 32.414062 28.230469 28.285156 32.375 28.296875 37.480469 M 31.539062 37.472656 C 31.535156 37.078125 31.574219 36.691406 31.648438 36.304688 C 31.726562 35.917969 31.839844 35.542969 31.988281 35.175781 C 32.140625 34.8125 32.324219 34.464844 32.542969 34.136719 C 32.761719 33.808594 33.007812 33.507812 33.285156 33.226562 C 33.5625 32.949219 33.867188 32.699219 34.195312 32.480469 C 34.519531 32.261719 34.867188 32.074219 35.230469 31.921875 C 35.59375 31.773438 35.96875 31.65625 36.355469 31.578125 C 36.742188 31.503906 37.132812 31.460938 37.527344 31.460938 C 37.917969 31.460938 38.308594 31.5 38.695312 31.574219 C 39.082031 31.652344 39.457031 31.765625 39.824219 31.914062 C 40.1875 32.0625 40.53125 32.25 40.859375 32.464844 C 41.1875 32.683594 41.492188 32.933594 41.773438 33.210938 C 42.050781 33.488281 42.300781 33.792969 42.519531 34.117188 C 42.738281 34.445312 42.925781 34.792969 43.078125 35.15625 C 43.226562 35.519531 43.34375 35.894531 43.421875 36.28125 C 43.496094 36.667969 43.535156 37.054688 43.539062 37.449219 C 43.539062 37.84375 43.5 38.234375 43.425781 38.621094 C 43.347656 39.007812 43.234375 39.382812 43.085938 39.746094 C 42.933594 40.113281 42.75 40.457031 42.53125 40.785156 C 42.316406 41.113281 42.066406 41.417969 41.789062 41.695312 C 41.511719 41.976562 41.207031 42.226562 40.878906 42.445312 C 40.554688 42.664062 40.207031 42.847656 39.84375 43 C 39.480469 43.152344 39.105469 43.265625 38.71875 43.34375 C 38.332031 43.421875 37.941406 43.460938 37.550781 43.460938 C 37.15625 43.464844 36.765625 43.425781 36.378906 43.347656 C 35.992188 43.273438 35.617188 43.160156 35.253906 43.011719 C 34.886719 42.859375 34.542969 42.675781 34.214844 42.457031 C 33.886719 42.238281 33.582031 41.992188 33.304688 41.714844 C 33.023438 41.433594 32.773438 41.132812 32.554688 40.804688 C 32.335938 40.476562 32.148438 40.132812 32 39.769531 C 31.847656 39.40625 31.734375 39.03125 31.65625 38.644531 C 31.578125 38.257812 31.539062 37.867188 31.539062 37.472656 " fill-opacity="1" fill-rule="nonzero"/></g></svg>