<svg xmlns="http://www.w3.org/2000/svg" xmlns:xlink="http://www.w3.org/1999/xlink" width="100" zoomAndPan="magnify" viewBox="0 0 75 74.999997" height="100" preserveAspectRatio="xMidYMid meet" version="1.0"><defs><clipPath id="1f8866665f"><path d="M 7.351562 7.5 L 67.5 7.5 L 67.5 67.648438 L 7.351562 67.648438 Z M 7.351562 7.5 " clip-rule="nonzero"/></clipPath><clipPath id="b64dca90f4"><path d="M 37.425781 7.5 C 20.816406 7.5 7.351562 20.964844 7.351562 37.574219 C 7.351562 54.183594 20.816406 67.648438 37.425781 67.648438 C 54.035156 67.648438 67.5 54.183594 67.5 37.574219 C 67.5 20.964844 54.035156 7.5 37.425781 7.5 Z M 37.425781 7.5 " clip-rule="nonzero"/></clipPath><linearGradient x1="128" gradientTransform="matrix(0.234961, 0, 0, 0.234961, 7.350001, 7.499999)" y1="-0.00000133001" x2="128" gradientUnits="userSpaceOnUse" y2="256.000003" id="887321be95"><stop stop-opacity="1" stop-color="rgb(40.79895%, 28.599548%, 20.799255%)" offset="0"/><stop stop-opacity="1" stop-color="rgb(40.979004%, 28.770447%, 20.878601%)" offset="0.015625"/><stop stop-opacity="1" stop-color="rgb(41.340637%, 29.11377%, 21.037292%)" offset="0.03125"/><stop stop-opacity="1" stop-color="rgb(41.700745%, 29.458618%, 21.19751%)" offset="0.046875"/><stop stop-opacity="1" stop-color="rgb(42.062378%, 29.801941%, 21.356201%)" offset="0.0625"/><stop stop-opacity="1" stop-color="rgb(42.422485%, 30.145264%, 21.516418%)" offset="0.078125"/><stop stop-opacity="1" stop-color="rgb(42.784119%, 30.488586%, 21.67511%)" offset="0.09375"/><stop stop-opacity="1" stop-color="rgb(43.144226%, 30.833435%, 21.835327%)" offset="0.109375"/><stop stop-opacity="1" stop-color="rgb(43.505859%, 31.176758%, 21.994019%)" offset="0.125"/><stop stop-opacity="1" stop-color="rgb(43.867493%, 31.520081%, 22.154236%)" offset="0.140625"/><stop stop-opacity="1" stop-color="rgb(44.2276%, 31.864929%, 22.312927%)" offset="0.15625"/><stop stop-opacity="1" stop-color="rgb(44.589233%, 32.208252%, 22.471619%)" offset="0.171875"/><stop stop-opacity="1" stop-color="rgb(44.949341%, 32.551575%, 22.631836%)" offset="0.1875"/><stop stop-opacity="1" stop-color="rgb(45.310974%, 32.894897%, 22.790527%)" offset="0.203125"/><stop stop-opacity="1" stop-color="rgb(45.671082%, 33.239746%, 22.950745%)" offset="0.21875"/><stop stop-opacity="1" stop-color="rgb(46.032715%, 33.583069%, 23.109436%)" offset="0.234375"/><stop stop-opacity="1" stop-color="rgb(46.392822%, 33.926392%, 23.269653%)" offset="0.25"/><stop stop-opacity="1" stop-color="rgb(46.754456%, 34.27124%, 23.428345%)" offset="0.265625"/><stop stop-opacity="1" stop-color="rgb(47.114563%, 34.614563%, 23.588562%)" offset="0.28125"/><stop stop-opacity="1" stop-color="rgb(47.476196%, 34.957886%, 23.747253%)" offset="0.296875"/><stop stop-opacity="1" stop-color="rgb(47.83783%, 35.301208%, 23.907471%)" offset="0.3125"/><stop stop-opacity="1" stop-color="rgb(48.197937%, 35.646057%, 24.066162%)" offset="0.328125"/><stop stop-opacity="1" stop-color="rgb(48.55957%, 35.98938%, 24.224854%)" offset="0.34375"/><stop stop-opacity="1" stop-color="rgb(48.919678%, 36.332703%, 24.385071%)" offset="0.359375"/><stop stop-opacity="1" stop-color="rgb(49.281311%, 36.677551%, 24.543762%)" offset="0.375"/><stop stop-opacity="1" stop-color="rgb(49.641418%, 37.020874%, 24.703979%)" offset="0.390625"/><stop stop-opacity="1" stop-color="rgb(50.003052%, 37.364197%, 24.862671%)" offset="0.40625"/><stop stop-opacity="1" stop-color="rgb(50.363159%, 37.70752%, 25.022888%)" offset="0.421875"/><stop stop-opacity="1" stop-color="rgb(50.724792%, 38.052368%, 25.18158%)" offset="0.4375"/><stop stop-opacity="1" stop-color="rgb(51.0849%, 38.395691%, 25.341797%)" offset="0.453125"/><stop stop-opacity="1" stop-color="rgb(51.446533%, 38.739014%, 25.500488%)" offset="0.46875"/><stop stop-opacity="1" stop-color="rgb(51.808167%, 39.082336%, 25.65918%)" offset="0.484375"/><stop stop-opacity="1" stop-color="rgb(52.168274%, 39.427185%, 25.819397%)" offset="0.5"/><stop stop-opacity="1" stop-color="rgb(52.529907%, 39.770508%, 25.978088%)" offset="0.515625"/><stop stop-opacity="1" stop-color="rgb(52.890015%, 40.113831%, 26.138306%)" offset="0.53125"/><stop stop-opacity="1" stop-color="rgb(53.251648%, 40.458679%, 26.296997%)" offset="0.546875"/><stop stop-opacity="1" stop-color="rgb(53.611755%, 40.802002%, 26.457214%)" offset="0.5625"/><stop stop-opacity="1" stop-color="rgb(53.973389%, 41.145325%, 26.615906%)" offset="0.578125"/><stop stop-opacity="1" stop-color="rgb(54.333496%, 41.488647%, 26.776123%)" offset="0.59375"/><stop stop-opacity="1" stop-color="rgb(54.695129%, 41.833496%, 26.934814%)" offset="0.609375"/><stop stop-opacity="1" stop-color="rgb(55.055237%, 42.176819%, 27.093506%)" offset="0.625"/><stop stop-opacity="1" stop-color="rgb(55.41687%, 42.520142%, 27.253723%)" offset="0.640625"/><stop stop-opacity="1" stop-color="rgb(55.776978%, 42.86499%, 27.412415%)" offset="0.65625"/><stop stop-opacity="1" stop-color="rgb(56.138611%, 43.208313%, 27.572632%)" offset="0.671875"/><stop stop-opacity="1" stop-color="rgb(56.500244%, 43.551636%, 27.731323%)" offset="0.6875"/><stop stop-opacity="1" stop-color="rgb(56.860352%, 43.894958%, 27.891541%)" offset="0.703125"/><stop stop-opacity="1" stop-color="rgb(57.221985%, 44.239807%, 28.050232%)" offset="0.71875"/><stop stop-opacity="1" stop-color="rgb(57.582092%, 44.58313%, 28.210449%)" offset="0.734375"/><stop stop-opacity="1" stop-color="rgb(57.943726%, 44.926453%, 28.369141%)" offset="0.75"/><stop stop-opacity="1" stop-color="rgb(58.303833%, 45.271301%, 28.527832%)" offset="0.765625"/><stop stop-opacity="1" stop-color="rgb(58.665466%, 45.614624%, 28.688049%)" offset="0.78125"/><stop stop-opacity="1" stop-color="rgb(59.025574%, 45.957947%, 28.846741%)" offset="0.796875"/><stop stop-opacity="1" stop-color="rgb(59.387207%, 46.30127%, 29.006958%)" offset="0.8125"/><stop stop-opacity="1" stop-color="rgb(59.747314%, 46.646118%, 29.165649%)" offset="0.828125"/><stop stop-opacity="1" stop-color="rgb(60.108948%, 46.989441%, 29.325867%)" offset="0.84375"/><stop stop-opacity="1" stop-color="rgb(60.470581%, 47.332764%, 29.484558%)" offset="0.859375"/><stop stop-opacity="1" stop-color="rgb(60.830688%, 47.676086%, 29.644775%)" offset="0.875"/><stop stop-opacity="1" stop-color="rgb(61.192322%, 48.020935%, 29.803467%)" offset="0.890625"/><stop stop-opacity="1" stop-color="rgb(61.552429%, 48.364258%, 29.963684%)" offset="0.90625"/><stop stop-opacity="1" stop-color="rgb(61.914062%, 48.707581%, 30.122375%)" offset="0.921875"/><stop stop-opacity="1" stop-color="rgb(62.27417%, 49.052429%, 30.281067%)" offset="0.9375"/><stop stop-opacity="1" stop-color="rgb(62.635803%, 49.395752%, 30.441284%)" offset="0.953125"/><stop stop-opacity="1" stop-color="rgb(62.995911%, 49.739075%, 30.599976%)" offset="0.96875"/><stop stop-opacity="1" stop-color="rgb(63.357544%, 50.082397%, 30.760193%)" offset="0.984375"/><stop stop-opacity="1" stop-color="rgb(63.717651%, 50.427246%, 30.918884%)" offset="1"/></linearGradient><clipPath id="50a0ab9c11"><path d="M 14.4375 14.511719 L 60.1875 14.511719 L 60.1875 60.261719 L 14.4375 60.261719 Z M 14.4375 14.511719 " clip-rule="nonzero"/></clipPath></defs><g clip-path="url(#1f8866665f)"><g clip-path="url(#b64dca90f4)"><path fill="url(#887321be95)" d="M 7.351562 7.5 L 7.351562 67.648438 L 67.5 67.648438 L 67.5 7.5 Z M 7.351562 7.5 " fill-rule="nonzero"/></g></g><g clip-path="url(#50a0ab9c11)"><path fill="#cb983c" d="M 27.902344 14.671875 C 25.457031 14.789062 23.789062 15.179688 22.328125 15.753906 C 20.816406 16.339844 19.535156 17.132812 18.261719 18.410156 C 16.988281 19.691406 16.203125 20.972656 15.617188 22.484375 C 15.050781 23.949219 14.667969 25.621094 14.558594 28.066406 C 14.453125 30.515625 14.429688 31.300781 14.441406 37.542969 C 14.453125 43.785156 14.480469 44.566406 14.597656 47.019531 C 14.714844 49.464844 15.105469 51.136719 15.679688 52.59375 C 16.269531 54.105469 17.058594 55.386719 18.335938 56.660156 C 19.617188 57.9375 20.898438 58.71875 22.414062 59.304688 C 23.875 59.871094 25.546875 60.253906 27.996094 60.363281 C 30.441406 60.46875 31.230469 60.496094 37.46875 60.480469 C 43.710938 60.46875 44.496094 60.441406 46.945312 60.328125 C 49.398438 60.210938 51.058594 59.820312 52.519531 59.246094 C 54.03125 58.65625 55.3125 57.867188 56.585938 56.589844 C 57.859375 55.308594 58.644531 54.027344 59.230469 52.511719 C 59.796875 51.050781 60.179688 49.378906 60.285156 46.933594 C 60.394531 44.480469 60.417969 43.695312 60.40625 37.453125 C 60.394531 31.214844 60.367188 30.429688 60.25 27.980469 C 60.132812 25.527344 59.746094 23.863281 59.171875 22.402344 C 58.582031 20.890625 57.792969 19.613281 56.511719 18.335938 C 55.234375 17.058594 53.949219 16.277344 52.4375 15.695312 C 50.972656 15.128906 49.304688 14.742188 46.855469 14.636719 C 44.410156 14.53125 43.621094 14.503906 37.378906 14.515625 C 31.136719 14.527344 30.355469 14.554688 27.902344 14.671875 M 28.171875 56.226562 C 25.929688 56.128906 24.714844 55.757812 23.902344 55.445312 C 22.828125 55.03125 22.0625 54.53125 21.257812 53.730469 C 20.449219 52.929688 19.953125 52.164062 19.53125 51.089844 C 19.21875 50.28125 18.839844 49.066406 18.734375 46.824219 C 18.621094 44.402344 18.59375 43.675781 18.582031 37.539062 C 18.570312 31.402344 18.59375 30.675781 18.699219 28.25 C 18.792969 26.011719 19.167969 24.792969 19.480469 23.984375 C 19.894531 22.90625 20.390625 22.144531 21.195312 21.335938 C 21.996094 20.527344 22.761719 20.03125 23.835938 19.613281 C 24.644531 19.296875 25.859375 18.917969 28.101562 18.8125 C 30.523438 18.699219 31.25 18.675781 37.386719 18.660156 C 43.523438 18.648438 44.25 18.671875 46.675781 18.777344 C 48.914062 18.875 50.132812 19.246094 50.945312 19.558594 C 52.019531 19.972656 52.78125 20.46875 53.589844 21.273438 C 54.398438 22.078125 54.894531 22.839844 55.316406 23.914062 C 55.632812 24.722656 56.007812 25.9375 56.113281 28.179688 C 56.230469 30.601562 56.253906 31.332031 56.265625 37.464844 C 56.277344 43.601562 56.253906 44.328125 56.148438 46.753906 C 56.050781 48.992188 55.679688 50.210938 55.367188 51.023438 C 54.953125 52.097656 54.457031 52.863281 53.652344 53.667969 C 52.851562 54.476562 52.085938 54.972656 51.011719 55.394531 C 50.203125 55.707031 48.988281 56.085938 46.746094 56.191406 C 44.324219 56.304688 43.597656 56.332031 37.460938 56.34375 C 31.320312 56.355469 30.597656 56.332031 28.171875 56.226562 M 46.910156 25.214844 C 46.910156 25.578125 46.980469 25.929688 47.121094 26.269531 C 47.261719 26.605469 47.464844 26.90625 47.722656 27.164062 C 47.980469 27.421875 48.28125 27.621094 48.617188 27.757812 C 48.957031 27.898438 49.308594 27.96875 49.675781 27.96875 C 50.039062 27.964844 50.390625 27.894531 50.730469 27.753906 C 51.066406 27.613281 51.367188 27.414062 51.625 27.15625 C 51.882812 26.898438 52.082031 26.597656 52.21875 26.261719 C 52.359375 25.921875 52.429688 25.570312 52.429688 25.203125 C 52.425781 24.839844 52.355469 24.484375 52.214844 24.148438 C 52.074219 23.8125 51.875 23.511719 51.617188 23.253906 C 51.355469 22.996094 51.058594 22.796875 50.71875 22.660156 C 50.382812 22.519531 50.03125 22.449219 49.664062 22.449219 C 49.296875 22.453125 48.945312 22.523438 48.609375 22.664062 C 48.273438 22.804688 47.972656 23.003906 47.714844 23.261719 C 47.457031 23.519531 47.257812 23.820312 47.121094 24.15625 C 46.980469 24.496094 46.910156 24.847656 46.910156 25.214844 M 25.621094 37.523438 C 25.632812 44.039062 30.929688 49.3125 37.445312 49.300781 C 43.964844 49.289062 49.238281 43.996094 49.226562 37.476562 C 49.214844 30.957031 43.917969 25.683594 37.402344 25.695312 C 30.882812 25.707031 25.609375 31.003906 25.621094 37.523438 M 29.761719 37.511719 C 29.761719 37.011719 29.808594 36.511719 29.90625 36.019531 C 30.003906 35.523438 30.148438 35.046875 30.339844 34.582031 C 30.53125 34.113281 30.765625 33.671875 31.042969 33.253906 C 31.324219 32.835938 31.640625 32.449219 31.996094 32.089844 C 32.351562 31.734375 32.738281 31.417969 33.152344 31.136719 C 33.570312 30.855469 34.011719 30.617188 34.476562 30.425781 C 34.941406 30.230469 35.421875 30.085938 35.914062 29.984375 C 36.40625 29.886719 36.90625 29.835938 37.410156 29.835938 C 37.910156 29.835938 38.410156 29.882812 38.902344 29.980469 C 39.398438 30.078125 39.875 30.222656 40.34375 30.414062 C 40.808594 30.605469 41.25 30.839844 41.667969 31.117188 C 42.085938 31.398438 42.476562 31.714844 42.832031 32.070312 C 43.1875 32.425781 43.507812 32.8125 43.785156 33.230469 C 44.066406 33.648438 44.304688 34.085938 44.496094 34.550781 C 44.691406 35.015625 44.835938 35.496094 44.9375 35.988281 C 45.035156 36.480469 45.085938 36.980469 45.085938 37.484375 C 45.085938 37.984375 45.039062 38.484375 44.941406 38.976562 C 44.84375 39.472656 44.699219 39.953125 44.507812 40.417969 C 44.316406 40.882812 44.082031 41.324219 43.804688 41.742188 C 43.523438 42.160156 43.207031 42.550781 42.851562 42.90625 C 42.496094 43.261719 42.109375 43.582031 41.691406 43.859375 C 41.277344 44.140625 40.835938 44.378906 40.371094 44.570312 C 39.90625 44.765625 39.425781 44.910156 38.933594 45.011719 C 38.441406 45.109375 37.941406 45.160156 37.4375 45.160156 C 36.9375 45.160156 36.4375 45.113281 35.945312 45.015625 C 35.449219 44.917969 34.96875 44.773438 34.503906 44.582031 C 34.039062 44.390625 33.597656 44.15625 33.179688 43.878906 C 32.761719 43.597656 32.371094 43.28125 32.015625 42.925781 C 31.660156 42.574219 31.339844 42.1875 31.0625 41.769531 C 30.78125 41.351562 30.542969 40.910156 30.351562 40.445312 C 30.15625 39.980469 30.011719 39.5 29.910156 39.007812 C 29.8125 38.515625 29.761719 38.015625 29.761719 37.511719 " fill-opacity="1" fill-rule="nonzero"/></g></svg>