<svg xmlns="http://www.w3.org/2000/svg" xmlns:xlink="http://www.w3.org/1999/xlink" width="100" zoomAndPan="magnify" viewBox="0 0 75 74.999997" height="100" preserveAspectRatio="xMidYMid meet" version="1.0"><defs><clipPath id="c1c30187a1"><path d="M 7.351562 7.5 L 67.5 7.5 L 67.5 67.648438 L 7.351562 67.648438 Z M 7.351562 7.5 " clip-rule="nonzero"/></clipPath><clipPath id="7063a56a8d"><path d="M 37.425781 7.5 C 20.816406 7.5 7.351562 20.964844 7.351562 37.574219 C 7.351562 54.183594 20.816406 67.648438 37.425781 67.648438 C 54.035156 67.648438 67.5 54.183594 67.5 37.574219 C 67.5 20.964844 54.035156 7.5 37.425781 7.5 Z M 37.425781 7.5 " clip-rule="nonzero"/></clipPath><linearGradient x1="128" gradientTransform="matrix(0.234961, 0, 0, 0.234961, 7.350001, 7.499999)" y1="-0.00000133001" x2="128" gradientUnits="userSpaceOnUse" y2="256.000003" id="3fde8f0da8"><stop stop-opacity="1" stop-color="rgb(40.79895%, 28.599548%, 20.799255%)" offset="0"/><stop stop-opacity="1" stop-color="rgb(40.979004%, 28.770447%, 20.878601%)" offset="0.015625"/><stop stop-opacity="1" stop-color="rgb(41.340637%, 29.11377%, 21.037292%)" offset="0.03125"/><stop stop-opacity="1" stop-color="rgb(41.700745%, 29.458618%, 21.19751%)" offset="0.046875"/><stop stop-opacity="1" stop-color="rgb(42.062378%, 29.801941%, 21.356201%)" offset="0.0625"/><stop stop-opacity="1" stop-color="rgb(42.422485%, 30.145264%, 21.516418%)" offset="0.078125"/><stop stop-opacity="1" stop-color="rgb(42.784119%, 30.488586%, 21.67511%)" offset="0.09375"/><stop stop-opacity="1" stop-color="rgb(43.144226%, 30.833435%, 21.835327%)" offset="0.109375"/><stop stop-opacity="1" stop-color="rgb(43.505859%, 31.176758%, 21.994019%)" offset="0.125"/><stop stop-opacity="1" stop-color="rgb(43.867493%, 31.520081%, 22.154236%)" offset="0.140625"/><stop stop-opacity="1" stop-color="rgb(44.2276%, 31.864929%, 22.312927%)" offset="0.15625"/><stop stop-opacity="1" stop-color="rgb(44.589233%, 32.208252%, 22.471619%)" offset="0.171875"/><stop stop-opacity="1" stop-color="rgb(44.949341%, 32.551575%, 22.631836%)" offset="0.1875"/><stop stop-opacity="1" stop-color="rgb(45.310974%, 32.894897%, 22.790527%)" offset="0.203125"/><stop stop-opacity="1" stop-color="rgb(45.671082%, 33.239746%, 22.950745%)" offset="0.21875"/><stop stop-opacity="1" stop-color="rgb(46.032715%, 33.583069%, 23.109436%)" offset="0.234375"/><stop stop-opacity="1" stop-color="rgb(46.392822%, 33.926392%, 23.269653%)" offset="0.25"/><stop stop-opacity="1" stop-color="rgb(46.754456%, 34.27124%, 23.428345%)" offset="0.265625"/><stop stop-opacity="1" stop-color="rgb(47.114563%, 34.614563%, 23.588562%)" offset="0.28125"/><stop stop-opacity="1" stop-color="rgb(47.476196%, 34.957886%, 23.747253%)" offset="0.296875"/><stop stop-opacity="1" stop-color="rgb(47.83783%, 35.301208%, 23.907471%)" offset="0.3125"/><stop stop-opacity="1" stop-color="rgb(48.197937%, 35.646057%, 24.066162%)" offset="0.328125"/><stop stop-opacity="1" stop-color="rgb(48.55957%, 35.98938%, 24.224854%)" offset="0.34375"/><stop stop-opacity="1" stop-color="rgb(48.919678%, 36.332703%, 24.385071%)" offset="0.359375"/><stop stop-opacity="1" stop-color="rgb(49.281311%, 36.677551%, 24.543762%)" offset="0.375"/><stop stop-opacity="1" stop-color="rgb(49.641418%, 37.020874%, 24.703979%)" offset="0.390625"/><stop stop-opacity="1" stop-color="rgb(50.003052%, 37.364197%, 24.862671%)" offset="0.40625"/><stop stop-opacity="1" stop-color="rgb(50.363159%, 37.70752%, 25.022888%)" offset="0.421875"/><stop stop-opacity="1" stop-color="rgb(50.724792%, 38.052368%, 25.18158%)" offset="0.4375"/><stop stop-opacity="1" stop-color="rgb(51.0849%, 38.395691%, 25.341797%)" offset="0.453125"/><stop stop-opacity="1" stop-color="rgb(51.446533%, 38.739014%, 25.500488%)" offset="0.46875"/><stop stop-opacity="1" stop-color="rgb(51.808167%, 39.082336%, 25.65918%)" offset="0.484375"/><stop stop-opacity="1" stop-color="rgb(52.168274%, 39.427185%, 25.819397%)" offset="0.5"/><stop stop-opacity="1" stop-color="rgb(52.529907%, 39.770508%, 25.978088%)" offset="0.515625"/><stop stop-opacity="1" stop-color="rgb(52.890015%, 40.113831%, 26.138306%)" offset="0.53125"/><stop stop-opacity="1" stop-color="rgb(53.251648%, 40.458679%, 26.296997%)" offset="0.546875"/><stop stop-opacity="1" stop-color="rgb(53.611755%, 40.802002%, 26.457214%)" offset="0.5625"/><stop stop-opacity="1" stop-color="rgb(53.973389%, 41.145325%, 26.615906%)" offset="0.578125"/><stop stop-opacity="1" stop-color="rgb(54.333496%, 41.488647%, 26.776123%)" offset="0.59375"/><stop stop-opacity="1" stop-color="rgb(54.695129%, 41.833496%, 26.934814%)" offset="0.609375"/><stop stop-opacity="1" stop-color="rgb(55.055237%, 42.176819%, 27.093506%)" offset="0.625"/><stop stop-opacity="1" stop-color="rgb(55.41687%, 42.520142%, 27.253723%)" offset="0.640625"/><stop stop-opacity="1" stop-color="rgb(55.776978%, 42.86499%, 27.412415%)" offset="0.65625"/><stop stop-opacity="1" stop-color="rgb(56.138611%, 43.208313%, 27.572632%)" offset="0.671875"/><stop stop-opacity="1" stop-color="rgb(56.500244%, 43.551636%, 27.731323%)" offset="0.6875"/><stop stop-opacity="1" stop-color="rgb(56.860352%, 43.894958%, 27.891541%)" offset="0.703125"/><stop stop-opacity="1" stop-color="rgb(57.221985%, 44.239807%, 28.050232%)" offset="0.71875"/><stop stop-opacity="1" stop-color="rgb(57.582092%, 44.58313%, 28.210449%)" offset="0.734375"/><stop stop-opacity="1" stop-color="rgb(57.943726%, 44.926453%, 28.369141%)" offset="0.75"/><stop stop-opacity="1" stop-color="rgb(58.303833%, 45.271301%, 28.527832%)" offset="0.765625"/><stop stop-opacity="1" stop-color="rgb(58.665466%, 45.614624%, 28.688049%)" offset="0.78125"/><stop stop-opacity="1" stop-color="rgb(59.025574%, 45.957947%, 28.846741%)" offset="0.796875"/><stop stop-opacity="1" stop-color="rgb(59.387207%, 46.30127%, 29.006958%)" offset="0.8125"/><stop stop-opacity="1" stop-color="rgb(59.747314%, 46.646118%, 29.165649%)" offset="0.828125"/><stop stop-opacity="1" stop-color="rgb(60.108948%, 46.989441%, 29.325867%)" offset="0.84375"/><stop stop-opacity="1" stop-color="rgb(60.470581%, 47.332764%, 29.484558%)" offset="0.859375"/><stop stop-opacity="1" stop-color="rgb(60.830688%, 47.676086%, 29.644775%)" offset="0.875"/><stop stop-opacity="1" stop-color="rgb(61.192322%, 48.020935%, 29.803467%)" offset="0.890625"/><stop stop-opacity="1" stop-color="rgb(61.552429%, 48.364258%, 29.963684%)" offset="0.90625"/><stop stop-opacity="1" stop-color="rgb(61.914062%, 48.707581%, 30.122375%)" offset="0.921875"/><stop stop-opacity="1" stop-color="rgb(62.27417%, 49.052429%, 30.281067%)" offset="0.9375"/><stop stop-opacity="1" stop-color="rgb(62.635803%, 49.395752%, 30.441284%)" offset="0.953125"/><stop stop-opacity="1" stop-color="rgb(62.995911%, 49.739075%, 30.599976%)" offset="0.96875"/><stop stop-opacity="1" stop-color="rgb(63.357544%, 50.082397%, 30.760193%)" offset="0.984375"/><stop stop-opacity="1" stop-color="rgb(63.717651%, 50.427246%, 30.918884%)" offset="1"/></linearGradient></defs><g clip-path="url(#c1c30187a1)"><g clip-path="url(#7063a56a8d)"><path fill="url(#3fde8f0da8)" d="M 7.351562 7.5 L 7.351562 67.648438 L 67.5 67.648438 L 67.5 7.5 Z M 7.351562 7.5 " fill-rule="nonzero"/></g></g><path fill="#cb983c" d="M 20.128906 20.910156 C 19.714844 20.910156 19.378906 21.246094 19.378906 21.660156 L 19.378906 48.425781 C 19.378906 50.386719 19.949219 51.964844 21.113281 53.113281 C 22.960938 54.941406 25.605469 54.988281 25.871094 54.988281 L 49.707031 54.988281 C 49.746094 54.988281 50.003906 54.996094 50.363281 54.941406 C 48.027344 54.644531 44.644531 53.039062 44.644531 48.425781 L 44.644531 21.660156 C 44.644531 21.246094 44.308594 20.910156 43.894531 20.910156 Z M 46.144531 25.949219 L 46.144531 48.425781 C 46.144531 53.410156 50.953125 53.488281 51.160156 53.488281 C 51.5625 53.484375 54.910156 53.332031 55.425781 49.503906 C 55.460938 49.179688 55.472656 48.839844 55.472656 48.472656 L 55.472656 29.652344 C 55.472656 29.648438 55.472656 29.632812 55.472656 29.628906 C 55.445312 28.542969 54.863281 26.636719 52.917969 26.113281 C 52.308594 26.261719 51.800781 26.53125 51.417969 26.933594 C 50.425781 27.972656 50.457031 29.566406 50.457031 29.582031 L 50.457031 47.792969 C 50.457031 48.210938 50.121094 48.542969 49.707031 48.542969 C 49.289062 48.542969 48.957031 48.210938 48.957031 47.792969 L 48.957031 29.605469 C 48.953125 29.550781 48.878906 27.457031 50.269531 25.949219 Z M 24.089844 27.074219 L 38.878906 27.074219 C 39.292969 27.074219 39.628906 27.410156 39.628906 27.824219 C 39.628906 28.238281 39.292969 28.574219 38.878906 28.574219 L 24.089844 28.574219 C 23.675781 28.574219 23.339844 28.238281 23.339844 27.824219 C 23.339844 27.410156 23.675781 27.074219 24.089844 27.074219 Z M 24.089844 30.074219 L 38.878906 30.074219 C 39.292969 30.074219 39.628906 30.410156 39.628906 30.824219 C 39.628906 31.238281 39.292969 31.574219 38.878906 31.574219 L 24.089844 31.574219 C 23.675781 31.574219 23.339844 31.238281 23.339844 30.824219 C 23.339844 30.410156 23.675781 30.074219 24.089844 30.074219 Z M 24.441406 36.074219 L 29.527344 36.074219 C 29.941406 36.074219 30.277344 36.410156 30.277344 36.824219 C 30.277344 37.238281 29.941406 37.574219 29.527344 37.574219 L 24.441406 37.574219 C 24.027344 37.574219 23.691406 37.238281 23.691406 36.824219 C 23.691406 36.410156 24.027344 36.074219 24.441406 36.074219 Z M 33.089844 36.074219 L 38.878906 36.074219 C 39.292969 36.074219 39.628906 36.410156 39.628906 36.824219 C 39.628906 37.238281 39.292969 37.574219 38.878906 37.574219 L 33.089844 37.574219 C 32.675781 37.574219 32.339844 37.238281 32.339844 36.824219 C 32.339844 36.410156 32.675781 36.074219 33.089844 36.074219 Z M 24.441406 39.074219 L 29.527344 39.074219 C 29.941406 39.074219 30.277344 39.410156 30.277344 39.824219 C 30.277344 40.242188 29.941406 40.574219 29.527344 40.574219 L 24.441406 40.574219 C 24.027344 40.574219 23.691406 40.242188 23.691406 39.824219 C 23.691406 39.410156 24.027344 39.074219 24.441406 39.074219 Z M 33.089844 39.074219 L 38.878906 39.074219 C 39.292969 39.074219 39.628906 39.410156 39.628906 39.824219 C 39.628906 40.242188 39.292969 40.574219 38.878906 40.574219 L 33.089844 40.574219 C 32.675781 40.574219 32.339844 40.242188 32.339844 39.824219 C 32.339844 39.410156 32.675781 39.074219 33.089844 39.074219 Z M 33.089844 41.910156 L 38.878906 41.910156 C 39.292969 41.910156 39.628906 42.246094 39.628906 42.660156 C 39.628906 43.078125 39.292969 43.410156 38.878906 43.410156 L 33.089844 43.410156 C 32.675781 43.410156 32.339844 43.078125 32.339844 42.660156 C 32.339844 42.246094 32.675781 41.910156 33.089844 41.910156 Z M 24.441406 42.074219 L 29.527344 42.074219 C 29.941406 42.074219 30.277344 42.410156 30.277344 42.824219 C 30.277344 43.242188 29.941406 43.574219 29.527344 43.574219 L 24.441406 43.574219 C 24.027344 43.574219 23.691406 43.242188 23.691406 42.824219 C 23.691406 42.410156 24.027344 42.074219 24.441406 42.074219 Z M 33.089844 44.910156 L 38.878906 44.910156 C 39.292969 44.910156 39.628906 45.246094 39.628906 45.660156 C 39.628906 46.078125 39.292969 46.410156 38.878906 46.410156 L 33.089844 46.410156 C 32.675781 46.410156 32.339844 46.078125 32.339844 45.660156 C 32.339844 45.246094 32.675781 44.910156 33.089844 44.910156 Z M 24.441406 45.074219 L 29.527344 45.074219 C 29.941406 45.074219 30.277344 45.410156 30.277344 45.824219 C 30.277344 46.242188 29.941406 46.574219 29.527344 46.574219 L 24.441406 46.574219 C 24.027344 46.574219 23.691406 46.242188 23.691406 45.824219 C 23.691406 45.410156 24.027344 45.074219 24.441406 45.074219 Z M 33.089844 47.722656 L 38.878906 47.722656 C 39.292969 47.722656 39.628906 48.058594 39.628906 48.472656 C 39.628906 48.890625 39.292969 49.222656 38.878906 49.222656 L 33.089844 49.222656 C 32.675781 49.222656 32.339844 48.890625 32.339844 48.472656 C 32.339844 48.058594 32.675781 47.722656 33.089844 47.722656 Z M 24.441406 48.074219 L 29.527344 48.074219 C 29.941406 48.074219 30.277344 48.410156 30.277344 48.824219 C 30.277344 49.242188 29.941406 49.574219 29.527344 49.574219 L 24.441406 49.574219 C 24.027344 49.574219 23.691406 49.242188 23.691406 48.824219 C 23.691406 48.410156 24.027344 48.074219 24.441406 48.074219 Z M 24.441406 48.074219 " fill-opacity="1" fill-rule="nonzero"/></svg>