<svg xmlns="http://www.w3.org/2000/svg" xmlns:xlink="http://www.w3.org/1999/xlink" width="100" zoomAndPan="magnify" viewBox="0 0 75 74.999997" height="100" preserveAspectRatio="xMidYMid meet" version="1.0"><defs><clipPath id="7cf706c962"><path d="M 7.351562 7.5 L 67.5 7.5 L 67.5 67.648438 L 7.351562 67.648438 Z M 7.351562 7.5 " clip-rule="nonzero"/></clipPath><clipPath id="89e960bda7"><path d="M 37.425781 7.5 C 20.816406 7.5 7.351562 20.964844 7.351562 37.574219 C 7.351562 54.183594 20.816406 67.648438 37.425781 67.648438 C 54.035156 67.648438 67.5 54.183594 67.5 37.574219 C 67.5 20.964844 54.035156 7.5 37.425781 7.5 Z M 37.425781 7.5 " clip-rule="nonzero"/></clipPath><linearGradient x1="128" gradientTransform="matrix(0.234961, 0, 0, 0.234961, 7.350001, 7.499999)" y1="-0.00000133001" x2="128" gradientUnits="userSpaceOnUse" y2="256.000003" id="d4727eef8b"><stop stop-opacity="1" stop-color="rgb(40.79895%, 28.599548%, 20.799255%)" offset="0"/><stop stop-opacity="1" stop-color="rgb(40.979004%, 28.770447%, 20.878601%)" offset="0.015625"/><stop stop-opacity="1" stop-color="rgb(41.340637%, 29.11377%, 21.037292%)" offset="0.03125"/><stop stop-opacity="1" stop-color="rgb(41.700745%, 29.458618%, 21.19751%)" offset="0.046875"/><stop stop-opacity="1" stop-color="rgb(42.062378%, 29.801941%, 21.356201%)" offset="0.0625"/><stop stop-opacity="1" stop-color="rgb(42.422485%, 30.145264%, 21.516418%)" offset="0.078125"/><stop stop-opacity="1" stop-color="rgb(42.784119%, 30.488586%, 21.67511%)" offset="0.09375"/><stop stop-opacity="1" stop-color="rgb(43.144226%, 30.833435%, 21.835327%)" offset="0.109375"/><stop stop-opacity="1" stop-color="rgb(43.505859%, 31.176758%, 21.994019%)" offset="0.125"/><stop stop-opacity="1" stop-color="rgb(43.867493%, 31.520081%, 22.154236%)" offset="0.140625"/><stop stop-opacity="1" stop-color="rgb(44.2276%, 31.864929%, 22.312927%)" offset="0.15625"/><stop stop-opacity="1" stop-color="rgb(44.589233%, 32.208252%, 22.471619%)" offset="0.171875"/><stop stop-opacity="1" stop-color="rgb(44.949341%, 32.551575%, 22.631836%)" offset="0.1875"/><stop stop-opacity="1" stop-color="rgb(45.310974%, 32.894897%, 22.790527%)" offset="0.203125"/><stop stop-opacity="1" stop-color="rgb(45.671082%, 33.239746%, 22.950745%)" offset="0.21875"/><stop stop-opacity="1" stop-color="rgb(46.032715%, 33.583069%, 23.109436%)" offset="0.234375"/><stop stop-opacity="1" stop-color="rgb(46.392822%, 33.926392%, 23.269653%)" offset="0.25"/><stop stop-opacity="1" stop-color="rgb(46.754456%, 34.27124%, 23.428345%)" offset="0.265625"/><stop stop-opacity="1" stop-color="rgb(47.114563%, 34.614563%, 23.588562%)" offset="0.28125"/><stop stop-opacity="1" stop-color="rgb(47.476196%, 34.957886%, 23.747253%)" offset="0.296875"/><stop stop-opacity="1" stop-color="rgb(47.83783%, 35.301208%, 23.907471%)" offset="0.3125"/><stop stop-opacity="1" stop-color="rgb(48.197937%, 35.646057%, 24.066162%)" offset="0.328125"/><stop stop-opacity="1" stop-color="rgb(48.55957%, 35.98938%, 24.224854%)" offset="0.34375"/><stop stop-opacity="1" stop-color="rgb(48.919678%, 36.332703%, 24.385071%)" offset="0.359375"/><stop stop-opacity="1" stop-color="rgb(49.281311%, 36.677551%, 24.543762%)" offset="0.375"/><stop stop-opacity="1" stop-color="rgb(49.641418%, 37.020874%, 24.703979%)" offset="0.390625"/><stop stop-opacity="1" stop-color="rgb(50.003052%, 37.364197%, 24.862671%)" offset="0.40625"/><stop stop-opacity="1" stop-color="rgb(50.363159%, 37.70752%, 25.022888%)" offset="0.421875"/><stop stop-opacity="1" stop-color="rgb(50.724792%, 38.052368%, 25.18158%)" offset="0.4375"/><stop stop-opacity="1" stop-color="rgb(51.0849%, 38.395691%, 25.341797%)" offset="0.453125"/><stop stop-opacity="1" stop-color="rgb(51.446533%, 38.739014%, 25.500488%)" offset="0.46875"/><stop stop-opacity="1" stop-color="rgb(51.808167%, 39.082336%, 25.65918%)" offset="0.484375"/><stop stop-opacity="1" stop-color="rgb(52.168274%, 39.427185%, 25.819397%)" offset="0.5"/><stop stop-opacity="1" stop-color="rgb(52.529907%, 39.770508%, 25.978088%)" offset="0.515625"/><stop stop-opacity="1" stop-color="rgb(52.890015%, 40.113831%, 26.138306%)" offset="0.53125"/><stop stop-opacity="1" stop-color="rgb(53.251648%, 40.458679%, 26.296997%)" offset="0.546875"/><stop stop-opacity="1" stop-color="rgb(53.611755%, 40.802002%, 26.457214%)" offset="0.5625"/><stop stop-opacity="1" stop-color="rgb(53.973389%, 41.145325%, 26.615906%)" offset="0.578125"/><stop stop-opacity="1" stop-color="rgb(54.333496%, 41.488647%, 26.776123%)" offset="0.59375"/><stop stop-opacity="1" stop-color="rgb(54.695129%, 41.833496%, 26.934814%)" offset="0.609375"/><stop stop-opacity="1" stop-color="rgb(55.055237%, 42.176819%, 27.093506%)" offset="0.625"/><stop stop-opacity="1" stop-color="rgb(55.41687%, 42.520142%, 27.253723%)" offset="0.640625"/><stop stop-opacity="1" stop-color="rgb(55.776978%, 42.86499%, 27.412415%)" offset="0.65625"/><stop stop-opacity="1" stop-color="rgb(56.138611%, 43.208313%, 27.572632%)" offset="0.671875"/><stop stop-opacity="1" stop-color="rgb(56.500244%, 43.551636%, 27.731323%)" offset="0.6875"/><stop stop-opacity="1" stop-color="rgb(56.860352%, 43.894958%, 27.891541%)" offset="0.703125"/><stop stop-opacity="1" stop-color="rgb(57.221985%, 44.239807%, 28.050232%)" offset="0.71875"/><stop stop-opacity="1" stop-color="rgb(57.582092%, 44.58313%, 28.210449%)" offset="0.734375"/><stop stop-opacity="1" stop-color="rgb(57.943726%, 44.926453%, 28.369141%)" offset="0.75"/><stop stop-opacity="1" stop-color="rgb(58.303833%, 45.271301%, 28.527832%)" offset="0.765625"/><stop stop-opacity="1" stop-color="rgb(58.665466%, 45.614624%, 28.688049%)" offset="0.78125"/><stop stop-opacity="1" stop-color="rgb(59.025574%, 45.957947%, 28.846741%)" offset="0.796875"/><stop stop-opacity="1" stop-color="rgb(59.387207%, 46.30127%, 29.006958%)" offset="0.8125"/><stop stop-opacity="1" stop-color="rgb(59.747314%, 46.646118%, 29.165649%)" offset="0.828125"/><stop stop-opacity="1" stop-color="rgb(60.108948%, 46.989441%, 29.325867%)" offset="0.84375"/><stop stop-opacity="1" stop-color="rgb(60.470581%, 47.332764%, 29.484558%)" offset="0.859375"/><stop stop-opacity="1" stop-color="rgb(60.830688%, 47.676086%, 29.644775%)" offset="0.875"/><stop stop-opacity="1" stop-color="rgb(61.192322%, 48.020935%, 29.803467%)" offset="0.890625"/><stop stop-opacity="1" stop-color="rgb(61.552429%, 48.364258%, 29.963684%)" offset="0.90625"/><stop stop-opacity="1" stop-color="rgb(61.914062%, 48.707581%, 30.122375%)" offset="0.921875"/><stop stop-opacity="1" stop-color="rgb(62.27417%, 49.052429%, 30.281067%)" offset="0.9375"/><stop stop-opacity="1" stop-color="rgb(62.635803%, 49.395752%, 30.441284%)" offset="0.953125"/><stop stop-opacity="1" stop-color="rgb(62.995911%, 49.739075%, 30.599976%)" offset="0.96875"/><stop stop-opacity="1" stop-color="rgb(63.357544%, 50.082397%, 30.760193%)" offset="0.984375"/><stop stop-opacity="1" stop-color="rgb(63.717651%, 50.427246%, 30.918884%)" offset="1"/></linearGradient><clipPath id="5a207ca54f"><path d="M 18.710938 22 L 56.210938 22 L 56.210938 53 L 18.710938 53 Z M 18.710938 22 " clip-rule="nonzero"/></clipPath></defs><g clip-path="url(#7cf706c962)"><g clip-path="url(#89e960bda7)"><path fill="url(#d4727eef8b)" d="M 7.351562 7.5 L 7.351562 67.648438 L 67.5 67.648438 L 67.5 7.5 Z M 7.351562 7.5 " fill-rule="nonzero"/></g></g><g clip-path="url(#5a207ca54f)"><path fill="#cb983c" d="M 32.210938 22.722656 C 32.304688 22.722656 32.398438 22.722656 32.496094 22.722656 C 32.601562 22.722656 32.707031 22.722656 32.8125 22.722656 C 32.921875 22.722656 33.03125 22.722656 33.144531 22.722656 C 33.445312 22.71875 33.742188 22.71875 34.042969 22.71875 C 34.230469 22.71875 34.417969 22.71875 34.609375 22.71875 C 35.195312 22.71875 35.785156 22.714844 36.375 22.714844 C 37.054688 22.714844 37.730469 22.714844 38.410156 22.710938 C 38.933594 22.710938 39.460938 22.710938 39.984375 22.710938 C 40.300781 22.710938 40.613281 22.710938 40.925781 22.707031 C 41.21875 22.707031 41.515625 22.707031 41.8125 22.707031 C 41.917969 22.707031 42.027344 22.707031 42.132812 22.707031 C 43.34375 22.699219 44.277344 22.902344 45.191406 23.734375 C 45.699219 24.269531 46.054688 25.039062 46.046875 25.78125 C 46.046875 25.839844 46.046875 25.898438 46.046875 25.960938 C 46.046875 26.003906 46.046875 26.050781 46.046875 26.09375 C 46.125 26.09375 46.207031 26.09375 46.289062 26.09375 C 47.050781 26.089844 47.8125 26.085938 48.578125 26.085938 C 48.96875 26.082031 49.359375 26.082031 49.75 26.078125 C 50.128906 26.078125 50.507812 26.074219 50.886719 26.074219 C 51.03125 26.074219 51.175781 26.074219 51.320312 26.074219 C 52.765625 26.0625 52.765625 26.0625 53.425781 26.316406 C 53.503906 26.34375 53.585938 26.375 53.664062 26.402344 C 54.777344 26.941406 55.527344 27.824219 55.988281 28.964844 C 56.09375 29.269531 56.140625 29.550781 56.140625 29.871094 C 56.140625 29.941406 56.140625 30.007812 56.140625 30.078125 C 56.140625 30.1875 56.140625 30.1875 56.140625 30.296875 C 56.140625 30.375 56.140625 30.453125 56.140625 30.535156 C 56.144531 30.796875 56.144531 31.058594 56.144531 31.320312 C 56.144531 31.507812 56.144531 31.695312 56.144531 31.886719 C 56.144531 32.449219 56.148438 33.011719 56.148438 33.578125 C 56.148438 33.84375 56.148438 34.109375 56.148438 34.375 C 56.148438 35.261719 56.152344 36.144531 56.152344 37.03125 C 56.152344 37.257812 56.152344 37.488281 56.152344 37.71875 C 56.152344 37.773438 56.152344 37.832031 56.152344 37.890625 C 56.152344 38.8125 56.15625 39.738281 56.15625 40.660156 C 56.160156 41.609375 56.160156 42.558594 56.160156 43.503906 C 56.160156 44.039062 56.160156 44.570312 56.164062 45.101562 C 56.164062 45.601562 56.164062 46.105469 56.164062 46.605469 C 56.164062 46.789062 56.164062 46.972656 56.167969 47.15625 C 56.175781 48.726562 55.992188 49.9375 54.867188 51.125 C 53.808594 52.109375 52.636719 52.28125 51.253906 52.277344 C 51.128906 52.277344 51.003906 52.277344 50.878906 52.28125 C 50.542969 52.28125 50.203125 52.28125 49.863281 52.28125 C 49.496094 52.28125 49.128906 52.28125 48.761719 52.28125 C 48.042969 52.28125 47.324219 52.285156 46.609375 52.285156 C 46.023438 52.285156 45.441406 52.285156 44.855469 52.285156 C 43.199219 52.285156 41.542969 52.285156 39.886719 52.285156 C 39.753906 52.285156 39.753906 52.285156 39.617188 52.285156 C 39.527344 52.285156 39.4375 52.285156 39.347656 52.285156 C 37.898438 52.285156 36.449219 52.289062 35.003906 52.289062 C 33.515625 52.292969 32.027344 52.292969 30.539062 52.292969 C 29.707031 52.292969 28.871094 52.292969 28.035156 52.292969 C 27.324219 52.296875 26.613281 52.296875 25.902344 52.296875 C 25.542969 52.292969 25.179688 52.292969 24.816406 52.296875 C 24.484375 52.296875 24.152344 52.296875 23.820312 52.296875 C 23.699219 52.296875 23.582031 52.296875 23.460938 52.296875 C 22.011719 52.304688 20.847656 51.945312 19.769531 50.917969 C 19.175781 50.277344 18.707031 49.382812 18.703125 48.488281 C 18.703125 48.421875 18.703125 48.355469 18.703125 48.285156 C 18.703125 48.214844 18.703125 48.140625 18.703125 48.0625 C 18.699219 47.945312 18.699219 47.945312 18.699219 47.828125 C 18.699219 47.5625 18.699219 47.300781 18.699219 47.039062 C 18.699219 46.847656 18.695312 46.660156 18.695312 46.472656 C 18.695312 45.90625 18.695312 45.339844 18.691406 44.773438 C 18.691406 44.613281 18.691406 44.453125 18.691406 44.292969 C 18.691406 43.300781 18.6875 42.304688 18.6875 41.308594 C 18.6875 41.078125 18.6875 40.847656 18.6875 40.621094 C 18.6875 40.535156 18.6875 40.535156 18.6875 40.445312 C 18.6875 39.519531 18.683594 38.59375 18.679688 37.667969 C 18.675781 36.714844 18.675781 35.765625 18.675781 34.8125 C 18.675781 34.277344 18.675781 33.746094 18.671875 33.210938 C 18.667969 32.707031 18.667969 32.203125 18.667969 31.703125 C 18.667969 31.519531 18.667969 31.335938 18.667969 31.148438 C 18.65625 29.636719 18.816406 28.433594 19.898438 27.285156 C 20.738281 26.488281 21.710938 26.082031 22.859375 26.085938 C 22.921875 26.085938 22.984375 26.085938 23.050781 26.085938 C 23.261719 26.085938 23.46875 26.089844 23.679688 26.089844 C 23.824219 26.089844 23.96875 26.089844 24.113281 26.089844 C 24.496094 26.089844 24.878906 26.089844 25.261719 26.089844 C 25.652344 26.089844 26.039062 26.089844 26.429688 26.09375 C 27.195312 26.09375 27.960938 26.09375 28.726562 26.09375 C 28.730469 26.039062 28.734375 25.984375 28.738281 25.929688 C 28.746094 25.855469 28.75 25.78125 28.757812 25.707031 C 28.765625 25.636719 28.769531 25.5625 28.777344 25.488281 C 28.863281 24.664062 29.359375 23.925781 29.984375 23.402344 C 30.664062 22.914062 31.382812 22.726562 32.210938 22.722656 Z M 31.144531 25.019531 C 30.71875 25.566406 30.738281 26.085938 30.738281 26.753906 C 30.730469 27.191406 30.699219 27.445312 30.40625 27.777344 C 30 28.046875 29.578125 28.003906 29.109375 28.003906 C 28.960938 28.003906 28.8125 28.003906 28.664062 28.003906 C 28.585938 28.003906 28.507812 28.003906 28.429688 28.003906 C 28.011719 28.003906 27.597656 28.003906 27.183594 28.007812 C 26.652344 28.007812 26.125 28.007812 25.597656 28.007812 C 25.171875 28.007812 24.742188 28.007812 24.316406 28.011719 C 24.152344 28.011719 23.992188 28.011719 23.828125 28.011719 C 22.460938 27.996094 22.460938 27.996094 21.308594 28.671875 C 20.675781 29.316406 20.601562 30.054688 20.601562 30.917969 C 20.601562 30.992188 20.601562 31.066406 20.601562 31.140625 C 20.601562 31.386719 20.601562 31.632812 20.601562 31.878906 C 20.601562 32.054688 20.601562 32.230469 20.601562 32.40625 C 20.601562 32.835938 20.601562 33.265625 20.601562 33.691406 C 20.601562 34.039062 20.601562 34.390625 20.601562 34.738281 C 20.597656 35.726562 20.597656 36.714844 20.597656 37.703125 C 20.597656 37.757812 20.597656 37.8125 20.597656 37.867188 C 20.597656 37.917969 20.597656 37.972656 20.597656 38.027344 C 20.597656 38.890625 20.597656 39.757812 20.597656 40.621094 C 20.597656 41.507812 20.597656 42.398438 20.597656 43.285156 C 20.597656 43.785156 20.597656 44.28125 20.59375 44.78125 C 20.59375 45.25 20.59375 45.71875 20.59375 46.1875 C 20.59375 46.359375 20.59375 46.53125 20.59375 46.703125 C 20.59375 46.9375 20.59375 47.171875 20.59375 47.40625 C 20.59375 47.476562 20.59375 47.542969 20.59375 47.613281 C 20.597656 48.355469 20.738281 48.960938 21.199219 49.554688 C 21.929688 50.277344 22.664062 50.316406 23.644531 50.3125 C 23.765625 50.316406 23.890625 50.316406 24.011719 50.316406 C 24.351562 50.316406 24.691406 50.316406 25.03125 50.316406 C 25.394531 50.316406 25.761719 50.316406 26.128906 50.316406 C 26.84375 50.316406 27.558594 50.316406 28.277344 50.316406 C 28.859375 50.316406 29.441406 50.316406 30.023438 50.316406 C 30.105469 50.316406 30.1875 50.316406 30.273438 50.316406 C 30.441406 50.316406 30.609375 50.320312 30.777344 50.320312 C 32.359375 50.320312 33.9375 50.320312 35.515625 50.316406 C 36.960938 50.316406 38.402344 50.320312 39.847656 50.320312 C 41.332031 50.320312 42.8125 50.324219 44.296875 50.320312 C 45.128906 50.320312 45.960938 50.320312 46.792969 50.324219 C 47.503906 50.324219 48.210938 50.324219 48.921875 50.324219 C 49.28125 50.324219 49.644531 50.324219 50.003906 50.324219 C 50.335938 50.324219 50.667969 50.324219 51 50.324219 C 51.117188 50.324219 51.238281 50.324219 51.359375 50.324219 C 52.210938 50.328125 52.933594 50.253906 53.585938 49.640625 C 54.144531 48.96875 54.242188 48.261719 54.242188 47.421875 C 54.242188 47.308594 54.242188 47.308594 54.242188 47.195312 C 54.242188 46.945312 54.242188 46.695312 54.242188 46.441406 C 54.242188 46.261719 54.246094 46.082031 54.246094 45.902344 C 54.246094 45.363281 54.246094 44.824219 54.246094 44.285156 C 54.246094 44.03125 54.25 43.777344 54.25 43.523438 C 54.25 42.679688 54.25 41.835938 54.25 40.988281 C 54.25 40.769531 54.25 40.550781 54.25 40.332031 C 54.25 40.277344 54.253906 40.222656 54.253906 40.167969 C 54.253906 39.285156 54.253906 38.402344 54.257812 37.519531 C 54.257812 36.613281 54.261719 35.707031 54.261719 34.800781 C 54.261719 34.292969 54.261719 33.785156 54.261719 33.277344 C 54.265625 32.796875 54.265625 32.320312 54.265625 31.839844 C 54.265625 31.664062 54.265625 31.488281 54.265625 31.316406 C 54.265625 31.074219 54.265625 30.835938 54.265625 30.59375 C 54.265625 30.527344 54.269531 30.457031 54.269531 30.386719 C 54.261719 29.738281 54.023438 29.128906 53.574219 28.652344 C 52.992188 28.1875 52.484375 28.046875 51.753906 28.050781 C 51.679688 28.046875 51.609375 28.046875 51.535156 28.046875 C 51.378906 28.046875 51.226562 28.046875 51.070312 28.046875 C 50.824219 28.046875 50.578125 28.046875 50.332031 28.042969 C 49.632812 28.039062 48.933594 28.039062 48.230469 28.035156 C 47.804688 28.035156 47.375 28.03125 46.945312 28.03125 C 46.785156 28.027344 46.621094 28.027344 46.457031 28.027344 C 46.230469 28.027344 46.003906 28.027344 45.773438 28.023438 C 45.707031 28.027344 45.640625 28.027344 45.570312 28.027344 C 45.144531 28.019531 44.753906 27.964844 44.363281 27.777344 C 44.152344 27.484375 44.191406 27.085938 44.179688 26.734375 C 44.167969 25.769531 44.167969 25.769531 43.695312 24.96875 C 43.183594 24.539062 42.46875 24.601562 41.839844 24.605469 C 41.734375 24.605469 41.625 24.605469 41.519531 24.605469 C 41.234375 24.605469 40.945312 24.605469 40.660156 24.605469 C 40.355469 24.605469 40.054688 24.605469 39.753906 24.605469 C 39.25 24.605469 38.742188 24.605469 38.238281 24.605469 C 37.652344 24.605469 37.070312 24.605469 36.484375 24.605469 C 35.984375 24.605469 35.480469 24.605469 34.976562 24.605469 C 34.679688 24.605469 34.378906 24.605469 34.078125 24.605469 C 33.796875 24.605469 33.515625 24.605469 33.234375 24.605469 C 33.132812 24.605469 33.027344 24.605469 32.925781 24.605469 C 32.273438 24.601562 31.675781 24.601562 31.144531 25.019531 Z M 31.144531 25.019531 " fill-opacity="1" fill-rule="nonzero"/></g><path fill="#cb983c" d="M 42.625 32.039062 C 44.578125 33.574219 45.714844 35.507812 46.160156 37.953125 C 46.417969 40.308594 45.90625 42.683594 44.414062 44.554688 C 44.324219 44.664062 44.234375 44.769531 44.144531 44.878906 C 44.097656 44.9375 44.046875 44.996094 43.996094 45.058594 C 43.628906 45.496094 43.207031 45.847656 42.757812 46.191406 C 42.671875 46.261719 42.671875 46.261719 42.582031 46.328125 C 40.734375 47.699219 38.300781 48.222656 36.039062 47.886719 C 35.789062 47.84375 35.546875 47.789062 35.300781 47.726562 C 35.253906 47.714844 35.203125 47.703125 35.15625 47.691406 C 33.839844 47.347656 32.585938 46.695312 31.597656 45.761719 C 31.429688 45.605469 31.429688 45.605469 31.246094 45.464844 C 30.914062 45.195312 30.667969 44.847656 30.40625 44.511719 C 30.339844 44.425781 30.339844 44.425781 30.269531 44.339844 C 28.875 42.453125 28.382812 40.023438 28.707031 37.71875 C 28.96875 36.179688 29.625 34.746094 30.625 33.550781 C 30.714844 33.441406 30.714844 33.441406 30.808594 33.328125 C 33.726562 29.945312 39.035156 29.425781 42.625 32.039062 Z M 32.964844 34.0625 C 32.886719 34.117188 32.8125 34.175781 32.734375 34.234375 C 31.425781 35.429688 30.722656 37.171875 30.597656 38.910156 C 30.519531 40.675781 31.152344 42.421875 32.335938 43.726562 C 33.496094 44.960938 35.066406 45.890625 36.792969 45.984375 C 39.003906 46.050781 40.765625 45.414062 42.394531 43.882812 C 43.613281 42.632812 44.238281 40.894531 44.242188 39.167969 C 44.226562 38.160156 44.015625 37.15625 43.558594 36.253906 C 43.527344 36.1875 43.496094 36.117188 43.460938 36.046875 C 43.207031 35.554688 42.894531 35.140625 42.539062 34.71875 C 42.492188 34.660156 42.449219 34.601562 42.402344 34.539062 C 42.210938 34.3125 41.996094 34.136719 41.761719 33.957031 C 41.714844 33.921875 41.667969 33.886719 41.621094 33.851562 C 39.03125 31.871094 35.433594 31.917969 32.964844 34.0625 Z M 32.964844 34.0625 " fill-opacity="1" fill-rule="nonzero"/><path fill="#cb983c" d="M 51.015625 30.554688 C 51.453125 30.839844 51.726562 31.238281 51.863281 31.742188 C 51.949219 32.308594 51.851562 32.777344 51.515625 33.242188 C 51.199219 33.625 50.839844 33.8125 50.355469 33.914062 C 49.785156 33.960938 49.320312 33.824219 48.871094 33.46875 C 48.472656 33.085938 48.300781 32.679688 48.269531 32.128906 C 48.292969 31.578125 48.515625 31.117188 48.914062 30.742188 C 49.554688 30.25 50.292969 30.226562 51.015625 30.554688 Z M 51.015625 30.554688 " fill-opacity="1" fill-rule="nonzero"/></svg>